<svg viewBox="0 0 90 56" fill="none" xmlns="http://www.w3.org/2000/svg">
  <path d="M72.4692 55.4447V54.9636C73.6032 54.5856 73.8438 53.5547 73.8438 51.0805V35.7544C73.8438 33.2803 73.6032 32.2494 72.4692 31.8714V31.3903H89.0668L89.3073 35.2046L88.8606 35.3077C87.5891 32.9023 86.0428 32.0088 82.6408 32.0088H77.4863V41.9742H80.2697C84.4621 41.9742 85.6648 41.1495 86.2146 39.3626H86.6957V45.2044H86.2146C85.6648 43.4175 84.4621 42.5928 80.2697 42.5928H77.4863V51.0805C77.4863 53.5547 77.7268 54.5856 78.8608 54.9636V55.4447H72.4692Z" fill="black"/>
  <path d="M68.5136 55.7196L52.3971 35.3764V49.0187C52.3971 53.2111 53.2219 54.4138 55.0088 54.9636V55.4447H50.4041V54.9636C51.5381 54.5856 51.7786 53.5547 51.7786 51.0805V35.7544C51.7786 33.2803 51.4693 32.2494 49.9917 31.8714V31.3903H53.8748L68.3074 49.4655V37.8163C68.3074 33.6239 67.4827 32.4212 65.6958 31.8714V31.3903H70.3349V31.8714C69.2009 32.2494 68.9603 33.2803 68.9603 35.7544V55.7196H68.5136Z" fill="black"/>
  <path d="M36.3514 55.7884C30.5096 55.7884 24.0493 51.9397 24.0493 43.3145C24.0493 36.5105 29.0664 31.1154 36.3514 31.1154C42.1588 31.1154 48.6192 35.1016 48.6192 43.5206C48.6192 51.9053 42.1245 55.7884 36.3514 55.7884ZM38.3101 54.7231C43.5677 54.7231 45.4577 50.7713 45.1485 46.2354C44.633 38.9159 40.5094 32.0089 34.5645 32.0089C29.8911 32.0089 27.2451 35.6514 27.6231 41.2183C28.1042 48.091 32.4684 54.7231 38.3101 54.7231Z" fill="black"/>
  <path d="M13.9127 55.7884C5.69986 55.7884 0.648438 51.5274 0.648438 43.83C0.648438 36.8886 6.14659 31.1499 14.5656 31.1499C17.1085 31.1499 20.648 31.631 22.4349 32.8337L22.5723 37.3697L22.1599 37.4727C20.751 33.9333 17.2116 31.8028 13.6722 31.8028C8.17403 31.8028 4.29096 35.4453 4.29096 42.2836C4.29096 48.9158 8.20839 55.0668 14.9093 55.0668C18.758 55.0668 21.404 52.7301 22.641 49.1563L23.0878 49.225L22.5379 54.139C20.7167 54.9637 18.1051 55.7884 13.9127 55.7884Z" fill="black"/>
  <path d="M80.6926 24.8615C77.1532 24.8615 73.9574 23.7275 72.2048 22.4217L72.0674 17.2672L72.5141 17.1984C73.9574 21.1159 77.0157 24.1399 81.586 24.1399C83.9571 24.1399 86.1564 22.6279 86.1564 19.8101C86.1564 16.4425 81.7235 14.8617 78.9744 13.7621C75.435 12.2845 72.4797 11.1161 72.4797 7.12996C72.4797 2.8689 75.9161 0.222916 81.3111 0.222916C83.854 0.222916 86.122 0.77273 87.9089 1.66618L88.0464 6.13342L87.6684 6.27088C86.2595 2.73145 83.3386 0.807092 80.0053 0.807092C77.2563 0.807092 75.0914 2.42217 75.0914 5.13689C75.0914 8.19523 78.5621 9.43231 81.3111 10.5319C84.8162 11.8721 88.9742 13.4185 88.9742 17.5421C88.9742 22.2499 84.6444 24.8615 80.6926 24.8615Z" fill="black"/>
  <path d="M69.9771 24.5179H53.6201V24.0368C54.7541 23.6588 54.9947 22.6279 54.9947 20.1537V4.82766C54.9947 2.35349 54.7541 1.32259 53.6201 0.944589V0.463501H60.0117V0.944589C58.8777 1.32259 58.6372 2.35349 58.6372 4.82766V22.1812C58.6372 23.2808 59.2557 23.8993 60.3553 23.8993H63.1731C66.6439 23.8993 68.4308 23.0746 69.8053 20.1194L70.252 20.1881L69.9771 24.5179Z" fill="black"/>
  <path d="M43.9893 24.5179V24.0368C45.1233 23.6588 45.3638 22.6279 45.3638 20.1537V4.82766C45.3638 2.35349 45.1233 1.32259 43.9893 0.944589V0.463501H50.3809V0.944589C49.2469 1.32259 49.0063 2.35349 49.0063 4.82766V20.1537C49.0063 22.6279 49.2469 23.6588 50.3809 24.0368V24.5179H43.9893Z" fill="black"/>
  <path d="M19.5713 24.5178V24.0367C20.6022 23.6587 21.53 22.7652 22.4578 20.4629L28.8838 4.51827C29.1587 3.831 29.1243 3.28118 28.815 2.66264L28.3683 1.70047L31.7359 0.188477L40.2581 20.4973C41.2202 22.7652 42.1137 23.6587 42.904 24.0367V24.5178H36.6499V24.0367C37.7839 23.6587 37.3028 22.7652 36.3406 20.4973L34.2788 15.5489H25.1038L23.1107 20.4629C22.1829 22.7652 22.3891 23.7618 23.5574 24.0367V24.5178H19.5713ZM25.31 14.9991H34.0383L29.6054 4.38081L25.31 14.9991Z" fill="black"/>
  <path d="M18.1568 24.7584C15.3046 24.7584 14.6173 22.9028 12.9679 18.8823C10.9061 13.8652 10.7343 12.1814 7.71028 12.1814H5.68283V20.1537C5.68283 22.6279 5.92338 23.6588 7.05737 24.0368V24.5179H0.665771V24.0368C1.79977 23.6588 2.04031 22.6279 2.04031 20.1537V4.82766C2.04031 2.35349 1.79977 1.32259 0.665771 0.944589V0.463501H7.88209C15.3733 0.463501 16.9197 3.17821 16.9197 5.96165C16.9197 9.12308 14.7548 11.4942 10.1844 12.044C14.0675 12.4907 14.8235 14.1058 16.6448 18.6761C18.466 23.2464 18.844 24.0712 20.1155 24.0712C20.2873 24.0712 20.4591 24.0712 20.6309 24.0368V24.5179C19.8406 24.7241 18.7409 24.7584 18.1568 24.7584ZM7.88209 11.6316C11.7995 11.6316 13.2772 9.43235 13.2772 6.78637C13.2772 4.00293 11.4903 1.01332 7.19483 1.01332C6.71374 1.01332 6.19829 1.04768 5.68283 1.11641V11.6316H7.88209Z" fill="black"/>
</svg>
